<svg width="228" height="166" viewBox="0 0 228 166" fill="none" xmlns="http://www.w3.org/2000/svg">
<path d="M1.72295 156.909C1.60205 156.909 1.49323 156.867 1.3965 156.782C1.31186 156.697 1.26955 156.589 1.26955 156.456V144.667C1.26955 144.534 1.31186 144.425 1.3965 144.341C1.49323 144.256 1.60205 144.214 1.72295 144.214H3.68168C3.87514 144.214 4.02023 144.268 4.11695 144.377C4.22577 144.474 4.29227 144.552 4.31645 144.613L7.50846 150.344L10.7005 144.613C10.7367 144.552 10.7972 144.474 10.8818 144.377C10.9785 144.268 11.1297 144.214 11.3352 144.214H13.2758C13.4088 144.214 13.5176 144.256 13.6023 144.341C13.699 144.425 13.7474 144.534 13.7474 144.667V156.456C13.7474 156.589 13.699 156.697 13.6023 156.782C13.5176 156.867 13.4088 156.909 13.2758 156.909H11.1176C10.9846 156.909 10.8697 156.867 10.773 156.782C10.6884 156.697 10.646 156.589 10.646 156.456V149.655L8.59664 153.445C8.54827 153.554 8.47573 153.651 8.379 153.735C8.28227 153.82 8.14927 153.862 7.98 153.862H7.03691C6.86764 153.862 6.73464 153.82 6.63791 153.735C6.54118 153.651 6.46259 153.554 6.40214 153.445L4.35273 149.655V156.456C4.35273 156.589 4.31041 156.697 4.22577 156.782C4.14114 156.867 4.03232 156.909 3.89932 156.909H1.72295ZM18.9008 157.09C18.2479 157.09 17.6615 156.97 17.1416 156.728C16.6337 156.474 16.2287 156.135 15.9264 155.712C15.6241 155.289 15.473 154.811 15.473 154.279C15.473 153.421 15.8236 152.744 16.5249 152.248C17.2262 151.74 18.1572 151.396 19.3179 151.214L21.585 150.87V150.616C21.585 150.18 21.4943 149.848 21.3129 149.618C21.1316 149.389 20.7991 149.274 20.3154 149.274C19.9769 149.274 19.6988 149.34 19.4811 149.473C19.2756 149.606 19.1124 149.788 18.9915 150.017C18.8826 150.174 18.7315 150.253 18.5381 150.253H16.5068C16.3738 150.253 16.271 150.217 16.1985 150.144C16.1259 150.06 16.0957 149.963 16.1078 149.854C16.1078 149.636 16.1864 149.389 16.3436 149.11C16.5128 148.82 16.7667 148.536 17.1053 148.258C17.4438 147.98 17.8791 147.75 18.4111 147.569C18.9431 147.387 19.5839 147.297 20.3336 147.297C21.1195 147.297 21.7905 147.387 22.3467 147.569C22.9029 147.75 23.3502 148.004 23.6888 148.331C24.0394 148.657 24.2994 149.044 24.4686 149.491C24.6379 149.927 24.7226 150.41 24.7226 150.942V156.456C24.7226 156.589 24.6742 156.697 24.5775 156.782C24.4928 156.867 24.3901 156.909 24.2691 156.909H22.1653C22.0323 156.909 21.9235 156.867 21.8389 156.782C21.7542 156.697 21.7119 156.589 21.7119 156.456V155.821C21.5547 156.051 21.3431 156.262 21.0771 156.456C20.8111 156.649 20.4968 156.8 20.1341 156.909C19.7834 157.03 19.3723 157.09 18.9008 157.09ZM19.7532 155.023C20.1038 155.023 20.4182 154.95 20.6963 154.805C20.9865 154.648 21.2101 154.412 21.3673 154.098C21.5366 153.771 21.6212 153.366 21.6212 152.883V152.629L20.0796 152.901C19.5114 152.998 19.0942 153.149 18.8282 153.354C18.5743 153.548 18.4474 153.778 18.4474 154.044C18.4474 154.249 18.5078 154.424 18.6287 154.569C18.7496 154.715 18.9068 154.829 19.1003 154.914C19.2937 154.987 19.5114 155.023 19.7532 155.023ZM27.2225 156.909C27.0895 156.909 26.9807 156.867 26.8961 156.782C26.8114 156.697 26.7691 156.589 26.7691 156.456V147.932C26.7691 147.799 26.8114 147.69 26.8961 147.605C26.9807 147.52 27.0895 147.478 27.2225 147.478H29.3082C29.4412 147.478 29.55 147.52 29.6347 147.605C29.7193 147.69 29.7616 147.799 29.7616 147.932V148.621C30.076 148.246 30.4871 147.932 30.9949 147.678C31.5027 147.424 32.1012 147.297 32.7904 147.297C33.4917 147.297 34.1083 147.454 34.6403 147.768C35.1844 148.083 35.6076 148.548 35.9099 149.165C36.2242 149.769 36.3814 150.513 36.3814 151.396V156.456C36.3814 156.589 36.333 156.697 36.2363 156.782C36.1517 156.867 36.0489 156.909 35.928 156.909H33.6428C33.5219 156.909 33.4131 156.867 33.3164 156.782C33.2317 156.697 33.1894 156.589 33.1894 156.456V151.504C33.1894 150.936 33.0504 150.501 32.7723 150.199C32.5063 149.884 32.1073 149.727 31.5753 149.727C31.0795 149.727 30.6805 149.884 30.3783 150.199C30.0881 150.501 29.943 150.936 29.943 151.504V156.456C29.943 156.589 29.8946 156.697 29.7979 156.782C29.7133 156.867 29.6105 156.909 29.4896 156.909H27.2225ZM41.8695 157.09C41.1803 157.09 40.5637 156.933 40.0196 156.619C39.4876 156.305 39.0704 155.845 38.7682 155.241C38.4659 154.624 38.3148 153.874 38.3148 152.992V147.932C38.3148 147.799 38.3571 147.69 38.4417 147.605C38.5264 147.52 38.6352 147.478 38.7682 147.478H41.0352C41.1682 147.478 41.277 147.52 41.3617 147.605C41.4463 147.69 41.4886 147.799 41.4886 147.932V152.883C41.4886 154.068 42.0206 154.66 43.0846 154.66C43.5804 154.66 43.9733 154.509 44.2635 154.207C44.5658 153.892 44.7169 153.451 44.7169 152.883V147.932C44.7169 147.799 44.7592 147.69 44.8439 147.605C44.9285 147.52 45.0373 147.478 45.1703 147.478H47.4374C47.5704 147.478 47.6792 147.52 47.7638 147.605C47.8484 147.69 47.8908 147.799 47.8908 147.932V156.456C47.8908 156.589 47.8484 156.697 47.7638 156.782C47.6792 156.867 47.5704 156.909 47.4374 156.909H45.3335C45.2126 156.909 45.1038 156.867 45.0071 156.782C44.9224 156.697 44.8801 156.589 44.8801 156.456V155.766C44.5658 156.202 44.1547 156.534 43.6469 156.764C43.1511 156.982 42.5587 157.09 41.8695 157.09ZM51.5475 156.909C51.4266 156.909 51.3178 156.867 51.2211 156.782C51.1364 156.697 51.0941 156.589 51.0941 156.456V149.854H49.7157C49.5827 149.854 49.4739 149.812 49.3893 149.727C49.3047 149.642 49.2623 149.534 49.2623 149.401V147.932C49.2623 147.799 49.3047 147.69 49.3893 147.605C49.4739 147.52 49.5827 147.478 49.7157 147.478H51.0941V146.898C51.0941 146.076 51.2513 145.417 51.5657 144.921C51.8921 144.413 52.3516 144.05 52.944 143.833C53.5365 143.603 54.2438 143.488 55.066 143.488H56.4806C56.6015 143.488 56.7043 143.53 56.7889 143.615C56.8857 143.7 56.934 143.809 56.934 143.942V145.411C56.934 145.544 56.8857 145.652 56.7889 145.737C56.7043 145.822 56.6015 145.864 56.4806 145.864H55.2111C54.8 145.864 54.5098 145.961 54.3405 146.154C54.1833 146.348 54.1047 146.626 54.1047 146.988V147.478H56.2992C56.4202 147.478 56.5229 147.52 56.6076 147.605C56.7043 147.69 56.7527 147.799 56.7527 147.932V149.401C56.7527 149.534 56.7043 149.642 56.6076 149.727C56.5229 149.812 56.4202 149.854 56.2992 149.854H54.1047V156.456C54.1047 156.589 54.0624 156.697 53.9778 156.782C53.8932 156.867 53.7843 156.909 53.6513 156.909H51.5475ZM60.7349 157.09C60.082 157.09 59.4955 156.97 58.9756 156.728C58.4678 156.474 58.0628 156.135 57.7605 155.712C57.4582 155.289 57.3071 154.811 57.3071 154.279C57.3071 153.421 57.6577 152.744 58.359 152.248C59.0603 151.74 59.9913 151.396 61.152 151.214L63.419 150.87V150.616C63.419 150.18 63.3284 149.848 63.147 149.618C62.9656 149.389 62.6331 149.274 62.1495 149.274C61.811 149.274 61.5329 149.34 61.3152 149.473C61.1097 149.606 60.9465 149.788 60.8255 150.017C60.7167 150.174 60.5656 150.253 60.3721 150.253H58.3409C58.2079 150.253 58.1051 150.217 58.0325 150.144C57.96 150.06 57.9298 149.963 57.9419 149.854C57.9419 149.636 58.0204 149.389 58.1776 149.11C58.3469 148.82 58.6008 148.536 58.9394 148.258C59.2779 147.98 59.7132 147.75 60.2452 147.569C60.7772 147.387 61.418 147.297 62.1676 147.297C62.9535 147.297 63.6246 147.387 64.1808 147.569C64.737 147.75 65.1843 148.004 65.5229 148.331C65.8735 148.657 66.1335 149.044 66.3027 149.491C66.472 149.927 66.5566 150.41 66.5566 150.942V156.456C66.5566 156.589 66.5083 156.697 66.4115 156.782C66.3269 156.867 66.2241 156.909 66.1032 156.909H63.9994C63.8664 156.909 63.7576 156.867 63.673 156.782C63.5883 156.697 63.546 156.589 63.546 156.456V155.821C63.3888 156.051 63.1772 156.262 62.9112 156.456C62.6452 156.649 62.3309 156.8 61.9681 156.909C61.6175 157.03 61.2064 157.09 60.7349 157.09ZM61.5873 155.023C61.9379 155.023 62.2523 154.95 62.5304 154.805C62.8205 154.648 63.0442 154.412 63.2014 154.098C63.3707 153.771 63.4553 153.366 63.4553 152.883V152.629L61.9137 152.901C61.3455 152.998 60.9283 153.149 60.6623 153.354C60.4084 153.548 60.2815 153.778 60.2815 154.044C60.2815 154.249 60.3419 154.424 60.4628 154.569C60.5837 154.715 60.7409 154.829 60.9344 154.914C61.1278 154.987 61.3455 155.023 61.5873 155.023ZM72.9378 157.09C72.0431 157.09 71.2511 156.927 70.5619 156.601C69.8727 156.274 69.3226 155.803 68.9115 155.186C68.5125 154.557 68.2949 153.808 68.2586 152.937C68.2465 152.744 68.2405 152.502 68.2405 152.212C68.2405 151.909 68.2465 151.662 68.2586 151.468C68.2949 150.586 68.5125 149.836 68.9115 149.219C69.3105 148.591 69.8546 148.113 70.5438 147.786C71.2451 147.46 72.0431 147.297 72.9378 147.297C73.7721 147.297 74.4854 147.418 75.0779 147.66C75.6703 147.889 76.154 148.179 76.5288 148.53C76.9036 148.881 77.1817 149.243 77.3631 149.618C77.5565 149.981 77.6593 150.301 77.6714 150.579C77.6835 150.7 77.6412 150.809 77.5444 150.906C77.4477 150.991 77.3389 151.033 77.218 151.033H74.9147C74.7817 151.033 74.6789 151.003 74.6063 150.942C74.5338 150.882 74.4673 150.791 74.4068 150.67C74.2617 150.295 74.0743 150.029 73.8446 149.872C73.627 149.715 73.3428 149.636 72.9922 149.636C72.5086 149.636 72.1337 149.794 71.8677 150.108C71.6138 150.422 71.4748 150.906 71.4506 151.559C71.4385 152.042 71.4385 152.472 71.4506 152.847C71.4748 153.512 71.6138 153.995 71.8677 154.297C72.1337 154.6 72.5086 154.751 72.9922 154.751C73.367 154.751 73.6632 154.672 73.8809 154.515C74.0985 154.358 74.2738 154.092 74.4068 153.717C74.4673 153.596 74.5338 153.505 74.6063 153.445C74.6789 153.385 74.7817 153.354 74.9147 153.354H77.218C77.3389 153.354 77.4477 153.403 77.5444 153.499C77.6412 153.584 77.6835 153.687 77.6714 153.808C77.6593 154.013 77.5988 154.255 77.49 154.533C77.3812 154.799 77.2119 155.083 76.9822 155.386C76.7525 155.688 76.4502 155.972 76.0754 156.238C75.7127 156.492 75.2713 156.697 74.7514 156.855C74.2315 157.012 73.627 157.09 72.9378 157.09ZM84.1251 156.909C83.3513 156.909 82.6802 156.788 82.112 156.546C81.5558 156.292 81.1266 155.906 80.8243 155.386C80.522 154.854 80.3709 154.17 80.3709 153.336V149.854H78.9562C78.8232 149.854 78.7084 149.812 78.6116 149.727C78.527 149.642 78.4847 149.534 78.4847 149.401V147.932C78.4847 147.799 78.527 147.69 78.6116 147.605C78.7084 147.52 78.8232 147.478 78.9562 147.478H80.3709V144.486C80.3709 144.353 80.4132 144.244 80.4978 144.159C80.5946 144.075 80.7034 144.032 80.8243 144.032H82.9281C83.0611 144.032 83.1699 144.075 83.2546 144.159C83.3392 144.244 83.3815 144.353 83.3815 144.486V147.478H85.6486C85.7816 147.478 85.8904 147.52 85.975 147.605C86.0596 147.69 86.102 147.799 86.102 147.932V149.401C86.102 149.534 86.0596 149.642 85.975 149.727C85.8904 149.812 85.7816 149.854 85.6486 149.854H83.3815V153.082C83.3815 153.493 83.4601 153.82 83.6173 154.062C83.7745 154.303 84.0405 154.424 84.4153 154.424H85.8118C85.9448 154.424 86.0536 154.467 86.1382 154.551C86.2229 154.636 86.2652 154.745 86.2652 154.878V156.456C86.2652 156.589 86.2229 156.697 86.1382 156.782C86.0536 156.867 85.9448 156.909 85.8118 156.909H84.1251ZM91.2309 157.09C90.5417 157.09 89.9251 156.933 89.381 156.619C88.849 156.305 88.4318 155.845 88.1296 155.241C87.8273 154.624 87.6761 153.874 87.6761 152.992V147.932C87.6761 147.799 87.7185 147.69 87.8031 147.605C87.8877 147.52 87.9966 147.478 88.1296 147.478H90.3966C90.5296 147.478 90.6384 147.52 90.7231 147.605C90.8077 147.69 90.85 147.799 90.85 147.932V152.883C90.85 154.068 91.382 154.66 92.446 154.66C92.9417 154.66 93.3347 154.509 93.6249 154.207C93.9271 153.892 94.0783 153.451 94.0783 152.883V147.932C94.0783 147.799 94.1206 147.69 94.2052 147.605C94.2899 147.52 94.3987 147.478 94.5317 147.478H96.7987C96.9317 147.478 97.0406 147.52 97.1252 147.605C97.2098 147.69 97.2521 147.799 97.2521 147.932V156.456C97.2521 156.589 97.2098 156.697 97.1252 156.782C97.0406 156.867 96.9317 156.909 96.7987 156.909H94.6949C94.574 156.909 94.4652 156.867 94.3685 156.782C94.2838 156.697 94.2415 156.589 94.2415 156.456V155.766C93.9271 156.202 93.5161 156.534 93.0082 156.764C92.5125 156.982 91.9201 157.09 91.2309 157.09ZM99.8388 156.909C99.7058 156.909 99.597 156.867 99.5124 156.782C99.4278 156.697 99.3854 156.589 99.3854 156.456V147.932C99.3854 147.811 99.4278 147.708 99.5124 147.623C99.597 147.527 99.7058 147.478 99.8388 147.478H101.925C102.058 147.478 102.166 147.527 102.251 147.623C102.336 147.708 102.378 147.811 102.378 147.932V148.657C102.704 148.282 103.091 147.992 103.539 147.786C103.998 147.581 104.512 147.478 105.08 147.478H105.878C105.999 147.478 106.102 147.52 106.187 147.605C106.283 147.69 106.332 147.799 106.332 147.932V149.8C106.332 149.921 106.283 150.029 106.187 150.126C106.102 150.211 105.999 150.253 105.878 150.253H104.119C103.623 150.253 103.236 150.392 102.958 150.67C102.692 150.936 102.559 151.317 102.559 151.813V156.456C102.559 156.589 102.511 156.697 102.414 156.782C102.33 156.867 102.221 156.909 102.088 156.909H99.8388ZM108.075 156.909C107.942 156.909 107.833 156.867 107.748 156.782C107.664 156.697 107.621 156.589 107.621 156.456V147.932C107.621 147.799 107.664 147.69 107.748 147.605C107.833 147.52 107.942 147.478 108.075 147.478H110.215C110.336 147.478 110.438 147.52 110.523 147.605C110.62 147.69 110.668 147.799 110.668 147.932V156.456C110.668 156.589 110.62 156.697 110.523 156.782C110.438 156.867 110.336 156.909 110.215 156.909H108.075ZM108.056 146.118C107.923 146.118 107.815 146.076 107.73 145.991C107.645 145.906 107.603 145.798 107.603 145.665V144.05C107.603 143.917 107.645 143.809 107.73 143.724C107.815 143.627 107.923 143.579 108.056 143.579H110.215C110.348 143.579 110.457 143.627 110.541 143.724C110.638 143.809 110.686 143.917 110.686 144.05V145.665C110.686 145.798 110.638 145.906 110.541 145.991C110.457 146.076 110.348 146.118 110.215 146.118H108.056ZM113.813 156.909C113.68 156.909 113.571 156.867 113.487 156.782C113.402 156.697 113.36 156.589 113.36 156.456V147.932C113.36 147.799 113.402 147.69 113.487 147.605C113.571 147.52 113.68 147.478 113.813 147.478H115.899C116.032 147.478 116.141 147.52 116.225 147.605C116.31 147.69 116.352 147.799 116.352 147.932V148.621C116.667 148.246 117.078 147.932 117.585 147.678C118.093 147.424 118.692 147.297 119.381 147.297C120.082 147.297 120.699 147.454 121.231 147.768C121.775 148.083 122.198 148.548 122.5 149.165C122.815 149.769 122.972 150.513 122.972 151.396V156.456C122.972 156.589 122.924 156.697 122.827 156.782C122.742 156.867 122.639 156.909 122.519 156.909H120.233C120.112 156.909 120.004 156.867 119.907 156.782C119.822 156.697 119.78 156.589 119.78 156.456V151.504C119.78 150.936 119.641 150.501 119.363 150.199C119.097 149.884 118.698 149.727 118.166 149.727C117.67 149.727 117.271 149.884 116.969 150.199C116.679 150.501 116.534 150.936 116.534 151.504V156.456C116.534 156.589 116.485 156.697 116.388 156.782C116.304 156.867 116.201 156.909 116.08 156.909H113.813ZM129.621 160.899C128.69 160.899 127.916 160.778 127.299 160.536C126.695 160.295 126.211 160.004 125.848 159.666C125.498 159.327 125.244 158.989 125.087 158.65C124.929 158.324 124.845 158.064 124.833 157.87C124.821 157.737 124.863 157.628 124.96 157.544C125.056 157.459 125.171 157.417 125.304 157.417H127.608C127.716 157.417 127.807 157.441 127.88 157.489C127.964 157.55 128.031 157.647 128.079 157.78C128.14 157.913 128.218 158.052 128.315 158.197C128.424 158.342 128.569 158.457 128.75 158.541C128.944 158.638 129.204 158.686 129.53 158.686C129.893 158.686 130.195 158.626 130.437 158.505C130.679 158.396 130.86 158.209 130.981 157.943C131.102 157.689 131.162 157.344 131.162 156.909V155.694C130.884 155.996 130.528 156.244 130.092 156.438C129.657 156.619 129.131 156.71 128.514 156.71C127.898 156.71 127.354 156.619 126.882 156.438C126.411 156.256 126.018 155.984 125.703 155.621C125.389 155.259 125.141 154.817 124.96 154.297C124.79 153.778 124.688 153.179 124.651 152.502C124.639 152.188 124.639 151.873 124.651 151.559C124.688 150.906 124.79 150.32 124.96 149.8C125.129 149.28 125.371 148.832 125.685 148.458C126.012 148.083 126.411 147.799 126.882 147.605C127.354 147.4 127.898 147.297 128.514 147.297C129.167 147.297 129.724 147.424 130.183 147.678C130.655 147.919 131.041 148.228 131.344 148.603V147.932C131.344 147.811 131.386 147.708 131.471 147.623C131.555 147.527 131.664 147.478 131.797 147.478H133.883C134.016 147.478 134.125 147.527 134.209 147.623C134.306 147.708 134.354 147.811 134.354 147.932V156.655C134.354 157.574 134.167 158.348 133.792 158.977C133.417 159.605 132.879 160.083 132.178 160.409C131.477 160.736 130.624 160.899 129.621 160.899ZM129.494 154.352C129.881 154.352 130.195 154.267 130.437 154.098C130.679 153.929 130.854 153.711 130.963 153.445C131.084 153.179 131.15 152.895 131.162 152.593C131.174 152.46 131.18 152.272 131.18 152.03C131.18 151.789 131.174 151.607 131.162 151.486C131.15 151.172 131.084 150.882 130.963 150.616C130.854 150.35 130.679 150.138 130.437 149.981C130.195 149.812 129.881 149.727 129.494 149.727C129.095 149.727 128.774 149.812 128.533 149.981C128.303 150.15 128.134 150.38 128.025 150.67C127.928 150.96 127.868 151.281 127.843 151.631C127.831 151.897 127.831 152.169 127.843 152.448C127.868 152.798 127.928 153.119 128.025 153.409C128.134 153.699 128.303 153.929 128.533 154.098C128.774 154.267 129.095 154.352 129.494 154.352ZM141.005 156.909C140.872 156.909 140.763 156.867 140.678 156.782C140.593 156.697 140.551 156.589 140.551 156.456V144.667C140.551 144.534 140.593 144.425 140.678 144.341C140.763 144.256 140.872 144.214 141.005 144.214H149.474C149.607 144.214 149.716 144.256 149.801 144.341C149.885 144.425 149.928 144.534 149.928 144.667V146.372C149.928 146.505 149.885 146.614 149.801 146.698C149.716 146.783 149.607 146.825 149.474 146.825H143.689V149.274H149.075C149.208 149.274 149.317 149.322 149.402 149.419C149.486 149.503 149.529 149.612 149.529 149.745V151.323C149.529 151.444 149.486 151.553 149.402 151.65C149.317 151.734 149.208 151.776 149.075 151.776H143.689V154.297H149.619C149.752 154.297 149.861 154.34 149.946 154.424C150.03 154.509 150.073 154.618 150.073 154.751V156.456C150.073 156.589 150.03 156.697 149.946 156.782C149.861 156.867 149.752 156.909 149.619 156.909H141.005ZM151.554 156.909C151.445 156.909 151.348 156.873 151.264 156.8C151.191 156.716 151.155 156.619 151.155 156.51C151.155 156.474 151.161 156.431 151.173 156.383C151.185 156.323 151.209 156.268 151.246 156.22L154.274 152.067L151.518 148.167C151.481 148.119 151.451 148.071 151.427 148.022C151.415 147.974 151.409 147.926 151.409 147.877C151.409 147.768 151.451 147.678 151.536 147.605C151.62 147.52 151.717 147.478 151.826 147.478H154.039C154.196 147.478 154.311 147.514 154.383 147.587C154.468 147.66 154.528 147.726 154.565 147.786L156.251 150.126L157.92 147.805C157.968 147.744 158.029 147.678 158.101 147.605C158.186 147.52 158.307 147.478 158.464 147.478H160.586C160.695 147.478 160.785 147.52 160.858 147.605C160.943 147.678 160.985 147.768 160.985 147.877C160.985 147.926 160.979 147.974 160.967 148.022C160.955 148.071 160.93 148.119 160.894 148.167L158.065 152.067L161.13 156.22C161.178 156.268 161.209 156.317 161.221 156.365C161.233 156.413 161.239 156.462 161.239 156.51C161.239 156.619 161.196 156.716 161.112 156.8C161.039 156.873 160.943 156.909 160.822 156.909H158.518C158.373 156.909 158.264 156.879 158.192 156.818C158.119 156.746 158.059 156.679 158.011 156.619L156.179 154.134L154.329 156.619C154.28 156.667 154.22 156.728 154.147 156.8C154.075 156.873 153.96 156.909 153.803 156.909H151.554ZM163.05 160.355C162.917 160.355 162.809 160.313 162.724 160.228C162.639 160.143 162.597 160.035 162.597 159.902V147.932C162.597 147.799 162.639 147.69 162.724 147.605C162.809 147.52 162.917 147.478 163.05 147.478H165.1C165.221 147.478 165.324 147.52 165.408 147.605C165.505 147.69 165.553 147.799 165.553 147.932V148.603C165.831 148.228 166.2 147.919 166.66 147.678C167.119 147.424 167.687 147.297 168.364 147.297C168.969 147.297 169.501 147.394 169.96 147.587C170.42 147.768 170.813 148.04 171.139 148.403C171.466 148.766 171.72 149.207 171.901 149.727C172.094 150.247 172.203 150.845 172.227 151.523C172.24 151.764 172.246 151.988 172.246 152.194C172.246 152.399 172.24 152.623 172.227 152.865C172.203 153.518 172.1 154.104 171.919 154.624C171.738 155.144 171.484 155.585 171.157 155.948C170.831 156.311 170.432 156.595 169.96 156.8C169.501 156.994 168.969 157.09 168.364 157.09C167.772 157.09 167.252 156.988 166.805 156.782C166.369 156.564 166.007 156.262 165.716 155.875V159.902C165.716 160.035 165.674 160.143 165.59 160.228C165.505 160.313 165.396 160.355 165.263 160.355H163.05ZM167.385 154.66C167.796 154.66 168.117 154.576 168.346 154.406C168.576 154.237 168.739 154.007 168.836 153.717C168.945 153.427 169.011 153.106 169.035 152.756C169.06 152.381 169.06 152.006 169.035 151.631C169.011 151.281 168.945 150.96 168.836 150.67C168.739 150.38 168.576 150.15 168.346 149.981C168.117 149.812 167.796 149.727 167.385 149.727C166.986 149.727 166.666 149.818 166.424 149.999C166.182 150.168 166.007 150.392 165.898 150.67C165.789 150.948 165.729 151.251 165.716 151.577C165.704 151.807 165.698 152.03 165.698 152.248C165.698 152.466 165.704 152.695 165.716 152.937C165.729 153.239 165.795 153.524 165.916 153.79C166.037 154.044 166.218 154.255 166.46 154.424C166.702 154.582 167.01 154.66 167.385 154.66ZM178.5 157.09C177.484 157.09 176.626 156.927 175.925 156.601C175.236 156.274 174.704 155.809 174.329 155.204C173.966 154.588 173.76 153.856 173.712 153.01C173.7 152.768 173.694 152.496 173.694 152.194C173.694 151.879 173.7 151.607 173.712 151.377C173.76 150.519 173.978 149.788 174.365 149.183C174.752 148.578 175.29 148.113 175.979 147.786C176.68 147.46 177.521 147.297 178.5 147.297C179.492 147.297 180.332 147.46 181.021 147.786C181.722 148.113 182.266 148.578 182.653 149.183C183.04 149.788 183.258 150.519 183.306 151.377C183.318 151.607 183.324 151.879 183.324 152.194C183.324 152.496 183.318 152.768 183.306 153.01C183.258 153.856 183.046 154.588 182.671 155.204C182.309 155.809 181.777 156.274 181.075 156.601C180.386 156.927 179.528 157.09 178.5 157.09ZM178.5 154.878C179.044 154.878 179.437 154.715 179.679 154.388C179.933 154.062 180.078 153.572 180.114 152.919C180.126 152.738 180.132 152.496 180.132 152.194C180.132 151.891 180.126 151.65 180.114 151.468C180.078 150.827 179.933 150.344 179.679 150.017C179.437 149.679 179.044 149.509 178.5 149.509C177.968 149.509 177.575 149.679 177.321 150.017C177.067 150.344 176.928 150.827 176.904 151.468C176.892 151.65 176.886 151.891 176.886 152.194C176.886 152.496 176.892 152.738 176.904 152.919C176.928 153.572 177.067 154.062 177.321 154.388C177.575 154.715 177.968 154.878 178.5 154.878ZM188.989 157.09C188.203 157.09 187.532 157.006 186.976 156.837C186.432 156.655 185.985 156.438 185.634 156.184C185.295 155.93 185.042 155.67 184.872 155.404C184.703 155.126 184.612 154.89 184.6 154.696C184.588 154.563 184.63 154.455 184.727 154.37C184.824 154.273 184.927 154.225 185.036 154.225H187.103C187.139 154.225 187.17 154.231 187.194 154.243C187.218 154.255 187.254 154.279 187.303 154.316C187.46 154.4 187.617 154.509 187.774 154.642C187.931 154.763 188.113 154.872 188.318 154.968C188.524 155.065 188.772 155.114 189.062 155.114C189.4 155.114 189.684 155.047 189.914 154.914C190.144 154.781 190.259 154.582 190.259 154.316C190.259 154.122 190.204 153.965 190.096 153.844C189.987 153.711 189.763 153.584 189.425 153.463C189.098 153.342 188.602 153.221 187.937 153.1C187.309 152.955 186.758 152.768 186.287 152.538C185.815 152.296 185.453 151.988 185.199 151.613C184.945 151.226 184.818 150.761 184.818 150.217C184.818 149.733 184.975 149.268 185.289 148.82C185.604 148.373 186.063 148.01 186.668 147.732C187.272 147.442 188.016 147.297 188.899 147.297C189.6 147.297 190.204 147.381 190.712 147.551C191.232 147.708 191.667 147.913 192.018 148.167C192.381 148.421 192.653 148.681 192.834 148.947C193.016 149.213 193.112 149.455 193.124 149.673C193.136 149.794 193.1 149.902 193.016 149.999C192.931 150.084 192.834 150.126 192.725 150.126H190.839C190.791 150.126 190.742 150.12 190.694 150.108C190.646 150.084 190.603 150.06 190.567 150.035C190.422 149.963 190.277 149.866 190.132 149.745C189.987 149.624 189.817 149.515 189.624 149.419C189.431 149.322 189.189 149.274 188.899 149.274C188.572 149.274 188.318 149.346 188.137 149.491C187.955 149.636 187.865 149.824 187.865 150.054C187.865 150.211 187.913 150.356 188.01 150.489C188.119 150.622 188.33 150.743 188.645 150.852C188.971 150.96 189.473 151.081 190.15 151.214C190.984 151.347 191.649 151.565 192.145 151.867C192.641 152.157 192.991 152.502 193.197 152.901C193.402 153.288 193.505 153.699 193.505 154.134C193.505 154.715 193.33 155.228 192.979 155.676C192.641 156.123 192.133 156.474 191.456 156.728C190.779 156.97 189.957 157.09 188.989 157.09ZM199.485 157.09C198.059 157.09 196.922 156.704 196.076 155.93C195.229 155.156 194.788 154.007 194.752 152.484C194.752 152.399 194.752 152.29 194.752 152.157C194.752 152.024 194.752 151.922 194.752 151.849C194.788 150.894 195 150.078 195.387 149.401C195.786 148.711 196.33 148.192 197.019 147.841C197.72 147.478 198.536 147.297 199.467 147.297C200.531 147.297 201.408 147.508 202.097 147.932C202.798 148.355 203.324 148.929 203.675 149.655C204.026 150.38 204.201 151.208 204.201 152.139V152.574C204.201 152.707 204.153 152.816 204.056 152.901C203.971 152.986 203.868 153.028 203.747 153.028H197.944C197.944 153.04 197.944 153.058 197.944 153.082C197.944 153.106 197.944 153.131 197.944 153.155C197.956 153.505 198.016 153.826 198.125 154.116C198.234 154.406 198.403 154.636 198.633 154.805C198.863 154.975 199.141 155.059 199.467 155.059C199.709 155.059 199.909 155.023 200.066 154.95C200.235 154.866 200.374 154.775 200.483 154.678C200.592 154.569 200.676 154.479 200.737 154.406C200.846 154.285 200.93 154.213 200.991 154.189C201.063 154.152 201.172 154.134 201.317 154.134H203.566C203.687 154.134 203.784 154.17 203.856 154.243C203.941 154.303 203.977 154.394 203.965 154.515C203.953 154.721 203.85 154.968 203.657 155.259C203.463 155.549 203.179 155.839 202.804 156.129C202.442 156.407 201.982 156.637 201.426 156.818C200.87 157 200.223 157.09 199.485 157.09ZM197.944 151.232H201.009V151.196C201.009 150.809 200.948 150.471 200.828 150.18C200.719 149.89 200.543 149.667 200.302 149.509C200.072 149.352 199.794 149.274 199.467 149.274C199.141 149.274 198.863 149.352 198.633 149.509C198.415 149.667 198.246 149.89 198.125 150.18C198.004 150.471 197.944 150.809 197.944 151.196V151.232ZM209.42 157.09C208.839 157.09 208.313 157 207.842 156.818C207.382 156.625 206.983 156.347 206.645 155.984C206.318 155.609 206.064 155.162 205.883 154.642C205.702 154.11 205.599 153.505 205.575 152.828C205.563 152.587 205.557 152.375 205.557 152.194C205.557 152 205.563 151.789 205.575 151.559C205.599 150.906 205.702 150.32 205.883 149.8C206.064 149.28 206.318 148.832 206.645 148.458C206.971 148.083 207.37 147.799 207.842 147.605C208.313 147.4 208.839 147.297 209.42 147.297C210.024 147.297 210.544 147.4 210.979 147.605C211.415 147.799 211.783 148.052 212.086 148.367V144.486C212.086 144.353 212.128 144.244 212.213 144.159C212.297 144.075 212.406 144.032 212.539 144.032H214.752C214.873 144.032 214.975 144.075 215.06 144.159C215.157 144.244 215.205 144.353 215.205 144.486V156.456C215.205 156.589 215.157 156.697 215.06 156.782C214.975 156.867 214.873 156.909 214.752 156.909H212.702C212.569 156.909 212.46 156.867 212.376 156.782C212.291 156.697 212.249 156.589 212.249 156.456V155.875C211.959 156.226 211.584 156.516 211.124 156.746C210.665 156.976 210.097 157.09 209.42 157.09ZM210.399 154.66C210.81 154.66 211.13 154.576 211.36 154.406C211.602 154.225 211.777 153.995 211.886 153.717C212.007 153.439 212.074 153.137 212.086 152.81C212.098 152.568 212.104 152.339 212.104 152.121C212.104 151.903 212.098 151.68 212.086 151.45C212.074 151.148 212.007 150.87 211.886 150.616C211.765 150.35 211.584 150.138 211.342 149.981C211.1 149.812 210.786 149.727 210.399 149.727C210 149.727 209.68 149.812 209.438 149.981C209.208 150.15 209.045 150.38 208.948 150.67C208.851 150.96 208.791 151.281 208.767 151.631C208.73 152.006 208.73 152.381 208.767 152.756C208.791 153.106 208.851 153.427 208.948 153.717C209.045 154.007 209.208 154.237 209.438 154.406C209.68 154.576 210 154.66 210.399 154.66Z" fill="#F9AF06"/>
<path d="M27.0145 68.3296C26.8806 68.3296 26.7546 68.3154 26.6129 68.3154C23.4785 68.3154 20.9427 69.392 20.9427 70.7235L19.0606 105.131L1.72723 111.094V131.273H19.2023V105.074L27.0145 107.758V68.3225V68.3296Z" fill="white"/>
<path d="M71.0547 21.4323C60.7146 14.0725 75.8754 -1.45612 99.8548 8.03437C104.481 2.89188 123.524 -5.45022 143.358 5.9976C153.341 -1.6728 174.758 -2.87175 185.82 7.64435C201.004 3.24579 211.981 10.714 212.455 12.9313C206.757 9.27665 194.328 8.3016 185.292 12.9457C175.946 5.23922 157.897 1.51236 143.008 13.213C139.468 9.18276 116.77 -0.928874 101.772 13.6102C89.6234 6.04093 70.4414 10.5334 71.0469 21.4251L71.0547 21.4323Z" fill="#F9AF06"/>
<path d="M106.277 54.9128C103.079 50.0439 112.906 37.9462 134.601 44.5423C143.721 37.0007 164.586 33.39 179.357 44.7805C187.624 38.8098 205.088 41.7058 209.645 50.9745C206.447 47.066 192.374 41.4676 178.278 50.9745C178.278 50.9745 170.648 42.9193 158.151 43.0161C151.848 43.0608 142.588 44.3115 135.889 51.451C129.067 45.3388 108.831 44.1626 106.277 54.9202V54.9128Z" fill="#F9AF06"/>
<path d="M184.698 72.716C177.092 67.8816 163.257 71.3747 164.81 78.8031C168.805 74.9858 178.163 72.318 184.653 79.0316C192.626 71.8169 206.89 74.3667 209.645 78.6631C209.645 78.6631 209.178 70.7189 196.613 69.724C192.259 69.3776 187.859 70.3283 184.698 72.716Z" fill="#F9AF06"/>
<path d="M100.063 104.504V98.0114L104.834 99.7029V58.9388C101.924 59.1002 99.6754 60.181 99.6754 61.4935L97.6849 98.8607L91.6376 101.001V115.902L100.063 112.919V115.502L91.6376 118.485V122.668L100.063 119.685V122.268L91.6376 125.251V131.273H108.496V107.143L100.07 104.511L100.063 104.504Z" fill="white"/>
<path d="M39.6555 89.0078V101.449L31.229 104.428V131.273H48.0897V98.6803L56.5162 96.0519V83.05L39.6555 89.0078ZM35.4385 109.026L42.3149 106.727V109.306L35.4385 111.605V109.026ZM35.4385 114.647L42.4441 112.306V114.885L35.4385 117.226V114.647ZM35.4385 120.268L42.5809 117.878V120.458L35.4385 122.848V120.268ZM42.7101 126.03L35.4385 128.469V125.89L42.7101 123.451V126.03Z" fill="white"/>
<path d="M75.0279 89.3545V25.7047C74.0819 25.5425 73.052 25.4508 71.9686 25.4508C67.3835 25.4508 63.6605 27.0731 63.6605 29.0762L60.7309 84.142L65.8501 85.9547V131.273H80.3988V87.4571L75.0203 89.3615L75.0279 89.3545Z" fill="white"/>
<path d="M170.309 115.198L168.688 87.5043C168.695 87.4542 168.71 87.3968 168.71 87.3467C168.71 85.1971 160.461 85.1827 160.461 87.3467L159.07 111.05L170.309 115.198Z" fill="white"/>
<path d="M164.69 131.273V125.786L156.257 123.068V109.84L147.831 112.921V131.273H164.69Z" fill="white"/>
<path d="M181.548 131.273V117.878L168.904 122.234V131.273H181.548Z" fill="white"/>
<path d="M137.722 102.443L133.807 103.808V74.2287C131.115 73.7052 126.998 74.165 126.998 75.679L125.06 106.851L120.5 108.435V131.266H137.769V102.422L137.722 102.436V102.443ZM130.897 125.436L124.726 127.643V125.04L130.897 122.832V125.436ZM130.897 119.302L124.726 121.51V118.906L130.897 116.699V119.302ZM130.897 113.168L124.726 115.376V112.772L130.897 110.565V113.168Z" fill="white"/>
</svg>
